<svg version="1.1" id="Layer_1" xmlns="http://www.w3.org/2000/svg" xmlns:xlink="http://www.w3.org/1999/xlink" x="0px" y="0px"
	 width="100%" viewBox="0 0 1540 1920" enable-background="new 0 0 1540 1920" xml:space="preserve">
<path fill="#47704C" opacity="1.000000" stroke="none" 
	d="
M643.000000,0.999999 
	C942.294617,1.000000 1241.589233,1.000000 1540.941895,1.000000 
	C1540.941895,640.878479 1540.941895,1280.756958 1540.941895,1921.000000 
	C1432.969360,1921.000000 1324.938232,1921.000000 1216.575439,1920.661621 
	C1226.157959,1917.676758 1232.413574,1910.845581 1237.402710,1902.236572 
	C1243.849487,1903.553955 1249.909546,1904.882324 1256.012329,1905.972168 
	C1260.874023,1906.840454 1265.791138,1907.395386 1270.677490,1908.129761 
	C1276.967407,1909.075073 1283.251465,1910.060669 1289.541626,1911.291992 
	C1289.379639,1911.837769 1289.213867,1912.120361 1289.048096,1912.402954 
	C1294.800049,1912.935913 1300.550537,1913.486938 1306.309814,1913.922607 
	C1306.498169,1913.936768 1306.775269,1912.778198 1307.468750,1912.103516 
	C1338.106567,1912.029297 1368.286621,1912.018066 1398.374268,1912.283936 
	C1397.112793,1912.865723 1395.943604,1913.170288 1394.774536,1913.474731 
	C1394.828003,1913.820801 1394.881348,1914.166748 1394.934814,1914.512817 
	C1400.854370,1914.115967 1406.773926,1913.719116 1412.693481,1913.322266 
	C1412.652954,1913.009644 1412.612549,1912.697021 1412.572021,1912.384399 
	C1411.718994,1911.977783 1410.865845,1911.571045 1410.409668,1911.094360 
	C1419.662476,1910.055054 1428.627075,1909.657227 1437.350586,1907.993774 
	C1453.964844,1904.826050 1470.768921,1902.406860 1486.881958,1896.927124 
	C1501.930420,1891.809448 1516.259277,1885.620605 1528.250000,1874.615234 
	C1543.911499,1860.240601 1543.039185,1836.542969 1532.360474,1823.878784 
	C1522.966675,1812.738281 1510.295898,1807.461792 1496.598267,1803.979980 
	C1478.019043,1799.257080 1459.023315,1798.522827 1440.343262,1797.585449 
	C1445.283203,1797.334595 1449.894409,1797.334595 1454.505493,1797.334595 
	C1454.502441,1796.981567 1454.499268,1796.628662 1454.496094,1796.275635 
	C1442.494507,1796.275635 1430.492920,1796.275635 1418.491333,1796.275635 
	C1418.487915,1796.368042 1418.484619,1796.460449 1418.481201,1796.552856 
	C1423.982422,1796.980713 1429.483765,1797.408569 1434.521729,1797.899170 
	C1425.287476,1798.308228 1416.515503,1798.636108 1407.745361,1799.006104 
	C1400.137939,1799.327148 1392.530640,1799.663086 1384.926392,1800.049927 
	C1365.929932,1801.015869 1346.943726,1802.282227 1327.936157,1802.888794 
	C1318.186401,1803.200073 1308.392334,1802.500000 1298.633179,1801.977783 
	C1293.231567,1801.688721 1287.871704,1800.686890 1282.473145,1800.256226 
	C1276.969116,1799.817383 1271.383423,1800.092896 1265.934448,1799.332520 
	C1254.529419,1797.741089 1243.190796,1795.674194 1232.022705,1793.521606 
	C1242.308228,1776.704468 1246.997192,1759.283447 1243.098267,1739.688354 
	C1236.435303,1706.201050 1208.902466,1680.915527 1174.886230,1679.375977 
	C1141.011963,1677.842651 1107.010620,1679.118652 1072.819458,1678.928467 
	C1070.742432,1676.588257 1068.911011,1674.482300 1066.975342,1672.014893 
	C1061.494385,1663.781128 1056.117554,1655.908936 1050.759521,1647.702271 
	C1049.806519,1645.885254 1048.834839,1644.402710 1047.902588,1642.465088 
	C1047.260254,1631.279053 1046.718384,1620.536987 1045.855347,1609.820679 
	C1045.073364,1600.109375 1044.079102,1590.410034 1042.929810,1580.734863 
	C1041.415771,1567.990601 1039.644531,1555.277222 1038.010864,1542.547119 
	C1036.458496,1530.450806 1034.989380,1518.343506 1033.392456,1506.253174 
	C1031.989990,1495.636353 1030.461304,1485.036255 1028.866699,1474.025391 
	C1027.700073,1466.906860 1026.736206,1460.177979 1025.594604,1453.479370 
	C1021.805725,1431.247192 1018.150391,1408.989624 1014.080994,1386.808472 
	C1006.988770,1348.149780 999.956604,1309.474731 992.267273,1270.932739 
	C986.653076,1242.792236 980.156067,1214.824219 973.784302,1186.840332 
	C971.179932,1175.402222 967.867737,1164.125244 964.902100,1152.379639 
	C964.810791,1151.009521 964.820984,1149.999756 964.560791,1149.065186 
	C957.642212,1124.218750 950.937134,1099.309204 943.659668,1074.567993 
	C939.540833,1060.564941 934.474182,1046.840820 929.986877,1032.685791 
	C941.309937,1018.657104 953.132141,1005.407410 963.524048,991.117615 
	C990.457214,954.082153 1010.479858,913.459290 1024.053101,869.702576 
	C1030.297119,849.573181 1035.558228,829.189270 1037.975586,808.207520 
	C1039.885986,791.626282 1042.043823,775.023804 1042.783569,758.372681 
	C1043.423828,743.960083 1042.224731,729.465759 1041.884766,714.555908 
	C1042.618652,702.502502 1043.922729,690.896973 1043.850830,679.300049 
	C1043.740723,661.530518 1042.726685,643.765076 1042.016479,626.001160 
	C1041.024902,601.201843 1036.764038,576.885986 1030.966919,552.810669 
	C1022.430603,517.359863 1009.143738,483.832031 990.304382,452.554443 
	C978.693909,433.278687 965.289795,415.363617 949.966309,398.711243 
	C945.366577,393.542358 940.650269,388.644592 935.899597,383.780487 
	C935.818054,383.696991 935.319885,384.020416 934.725098,383.978271 
	C929.351501,379.269104 924.396240,374.582581 919.162659,370.230743 
	C903.276733,357.021149 886.204956,345.540314 868.013855,335.736328 
	C846.733215,324.267303 824.730164,314.611023 800.717773,309.079376 
	C792.442078,308.299774 784.518555,307.566772 776.191406,306.662445 
	C769.670898,305.984589 763.462158,305.960510 757.466248,304.818817 
	C752.670349,303.905609 751.291870,305.866241 749.708801,309.813904 
	C737.114685,341.219574 721.357849,370.686829 696.276367,394.196106 
	C676.857788,412.397522 653.789124,422.605377 627.248718,423.820923 
	C597.020935,425.205383 571.517090,413.217834 549.271851,393.667908 
	C532.141113,378.612793 520.102600,359.606079 509.592621,339.675110 
	C503.639191,328.385040 498.758179,316.529480 493.364777,304.865051 
	C486.223267,305.622681 479.146759,306.373383 471.716675,307.035889 
	C463.235352,307.696594 455.107635,308.445526 446.532227,309.138031 
	C444.255127,309.101746 442.375397,308.852142 440.603973,309.182831 
	C416.988922,313.591614 393.089478,316.905060 369.853973,322.820892 
	C332.890778,332.231812 297.497467,346.176971 264.129150,364.936737 
	C235.930237,380.790253 209.517395,399.050751 186.156311,421.882874 
	C181.634842,422.710876 177.244797,427.348419 176.978806,431.273285 
	C167.947876,441.818176 158.573776,451.675140 150.359970,462.419128 
	C138.297363,478.197449 127.428497,494.833221 119.084442,513.384583 
	C112.162674,530.689209 105.658356,547.767578 98.386528,564.512573 
	C87.274231,590.101135 80.383789,616.518494 81.072906,644.577454 
	C81.230400,650.990234 82.225510,657.384277 82.878250,663.782532 
	C84.803001,682.649414 90.776382,700.363037 98.778145,717.387573 
	C113.966362,749.701782 139.921738,772.461609 167.352982,793.870728 
	C181.680176,805.052490 195.875000,816.403625 210.156754,827.643799 
	C226.493225,840.501221 242.770493,853.436279 259.241394,866.119568 
	C272.562775,876.377625 285.996307,886.502319 299.637146,896.329346 
	C310.155914,903.907227 321.073578,910.931396 331.927643,918.528687 
	C337.045715,927.255127 342.050018,935.654785 346.905579,944.390076 
	C345.865448,947.016663 344.935699,949.293518 344.088593,951.600647 
	C335.365814,975.357483 325.886841,998.871216 318.128357,1022.939331 
	C307.187378,1056.880005 297.424744,1091.203247 287.380310,1125.427979 
	C284.793610,1134.241699 283.037964,1143.299438 280.672852,1152.514038 
	C275.474426,1173.583496 270.252594,1194.327881 265.597046,1215.198608 
	C259.897369,1240.750488 254.439590,1266.361694 249.309814,1292.033691 
	C244.603088,1315.588501 240.355804,1339.237549 236.119919,1362.883423 
	C232.236343,1384.562378 228.607254,1406.287476 224.924850,1428.002075 
	C222.266266,1443.679443 219.704117,1459.373291 217.074173,1475.499390 
	C215.226059,1489.481323 213.414688,1503.025146 211.576263,1516.565430 
	C209.405960,1532.549805 206.993591,1548.505005 205.093277,1564.521362 
	C203.364563,1579.091187 201.968658,1593.708862 200.810349,1608.335938 
	C199.309387,1627.290283 198.131210,1646.271118 196.947571,1665.248901 
	C196.663269,1669.806885 196.905319,1674.397949 196.443085,1678.996826 
	C156.682785,1679.012817 117.384598,1679.056152 78.086708,1678.968506 
	C65.918747,1678.941284 54.317795,1681.188599 43.494663,1686.803589 
	C16.946302,1700.576416 2.941280,1722.599976 2.126602,1752.359009 
	C1.438956,1777.477661 12.027222,1797.750854 31.777210,1813.065674 
	C41.831715,1820.862183 53.172073,1826.074829 66.063828,1827.579834 
	C65.894608,1836.017944 65.764694,1843.996582 65.606117,1851.976685 
	C65.577454,1851.978271 65.535774,1852.017822 65.145805,1851.768433 
	C57.045502,1851.346069 49.335228,1851.060303 41.624790,1851.056152 
	C38.570923,1851.054443 35.516724,1851.678955 32.175999,1852.016846 
	C30.917017,1852.684814 27.415623,1851.487183 29.552868,1854.837646 
	C15.661646,1859.968384 8.474660,1870.129639 6.082934,1883.945068 
	C4.158489,1895.061279 12.771002,1911.052856 23.163862,1916.774658 
	C24.484346,1917.501831 25.072510,1919.559082 25.999979,1921.000000 
	C17.667999,1921.000000 9.335997,1921.000000 1.002996,1921.000000 
	C1.001997,1281.103638 1.001997,641.207214 1.001997,1.000000 
	C202.030823,1.000000 403.061798,1.000000 604.260010,1.287543 
	C591.844360,4.375499 579.037781,6.433351 566.728271,10.141156 
	C545.446167,16.551641 527.568848,28.798496 512.967957,45.501904 
	C503.957001,55.810432 497.033936,67.583755 492.425415,80.511658 
	C486.841888,96.174652 482.868927,112.193542 483.757935,129.276001 
	C482.089050,130.352036 480.693542,131.240982 479.260406,132.064468 
	C470.622070,137.028152 463.951141,143.941681 462.941071,154.032898 
	C462.023712,163.198425 462.781799,172.550201 463.069397,181.811554 
	C463.278778,188.554916 469.222778,192.670425 475.880829,191.383575 
	C476.537384,195.206543 477.067047,198.629410 477.701447,202.032776 
	C480.730255,218.281601 487.932861,232.509644 498.691040,245.445129 
	C505.086670,269.792847 512.618652,293.349976 523.146179,315.796021 
	C533.914795,338.756104 545.772705,361.084656 565.508057,378.005402 
	C583.512268,393.442017 603.716736,402.540314 628.056641,401.127686 
	C639.487488,400.464264 650.036194,397.305603 660.151917,392.365814 
	C678.637878,383.338593 691.646301,368.419678 702.925232,351.790680 
	C716.325378,332.034393 726.429932,310.592926 734.040100,288.037689 
	C738.590637,274.550476 742.191528,260.742859 746.163330,247.064011 
	C746.107300,247.048737 746.080078,247.161545 746.342468,247.127380 
	C746.694336,246.762894 746.783813,246.432587 747.049561,245.805313 
	C760.898132,229.909775 767.863159,211.500473 770.460327,191.054703 
	C781.094482,190.999283 783.983582,188.132782 783.995117,178.001282 
	C784.002930,171.172470 783.909607,164.342270 784.018433,157.515198 
	C784.152161,149.122971 781.091309,142.256821 774.456116,137.124619 
	C770.782898,134.283478 766.904541,131.707550 763.083801,128.545288 
	C762.369812,119.992584 762.282959,111.803627 760.897583,103.840561 
	C757.128845,82.176834 748.530029,62.453430 734.105530,45.776737 
	C714.832214,23.494160 690.086975,10.468225 661.296021,4.855157 
	C655.179321,3.662637 649.097778,2.289768 643.000000,0.999999 
M1046.000122,683.944702 
	C1046.000122,671.522827 1046.000122,659.101013 1046.000122,646.679138 
	C1045.791138,646.684326 1045.582031,646.689514 1045.373047,646.694702 
	C1045.373047,660.205078 1045.373047,673.715454 1045.373047,687.225769 
	C1045.581665,687.223206 1045.790405,687.220703 1045.999023,687.218140 
	C1045.999023,686.401367 1045.999023,685.584534 1046.000122,683.944702 
M1044.000732,745.498291 
	C1044.000732,750.796021 1044.000732,756.093750 1044.000732,761.391479 
	C1044.226074,761.382446 1044.451416,761.373474 1044.676758,761.364441 
	C1044.676758,750.118469 1044.676758,738.872559 1044.676758,727.626587 
	C1044.451416,727.626343 1044.226074,727.626099 1044.000732,727.625854 
	C1044.000732,733.250610 1044.000732,738.875305 1044.000732,745.498291 
M785.425964,182.499084 
	C785.425964,172.574738 785.425964,162.650391 785.425964,152.726044 
	C785.315918,152.726669 785.205872,152.727295 785.095825,152.727921 
	C785.095825,162.464935 785.095825,172.201965 785.425964,182.499084 
z"/>
<path fill="#47704C" opacity="1.000000" stroke="none" 
	d="
M892.000000,1921.000000 
	C712.975098,1921.000000 533.950195,1921.000000 354.597900,1920.660522 
	C375.967133,1914.124756 387.668823,1888.495850 373.572510,1868.107788 
	C366.809113,1858.325684 357.340454,1853.335693 345.518463,1853.042114 
	C337.103119,1852.833008 328.678375,1853.001587 319.998657,1853.001587 
	C319.998657,1848.387939 320.109924,1844.565674 319.971283,1840.752441 
	C319.786102,1835.657593 319.406982,1830.569702 319.422607,1825.343018 
	C349.027496,1817.853760 374.351288,1789.833618 374.930023,1754.541138 
	C375.309570,1731.394775 375.026093,1708.237061 374.960846,1685.084717 
	C374.955353,1683.144409 374.350159,1681.205811 374.346588,1679.019043 
	C376.110962,1668.162842 377.599884,1657.559937 378.980682,1646.942993 
	C380.426422,1635.826294 381.590179,1624.670532 383.194977,1613.577759 
	C386.000305,1594.186035 388.983612,1574.819458 392.017517,1555.461914 
	C394.178253,1541.675781 396.549011,1527.922729 398.817108,1514.153442 
	C400.971191,1501.076172 403.113770,1487.996948 405.443420,1474.534424 
	C412.039215,1443.113281 418.126678,1412.004639 424.936920,1381.054932 
	C437.766052,1322.751709 453.403259,1265.248047 475.889648,1209.808838 
	C481.447205,1196.106934 487.149506,1182.502441 497.060516,1171.074951 
	C501.591553,1165.850708 505.092987,1159.733276 509.238831,1153.912842 
	C509.645660,1153.637207 509.823700,1153.426636 510.262604,1153.015869 
	C520.333374,1140.032959 530.167236,1127.263184 539.833679,1114.367920 
	C555.663086,1093.250977 571.383789,1072.052246 587.413086,1051.100830 
	C593.681824,1060.213623 599.679565,1069.119141 605.695679,1078.011963 
	C611.725098,1086.924561 617.772949,1095.824463 623.694580,1105.066895 
	C621.880554,1108.941528 620.168884,1112.471558 618.491028,1116.017578 
	C604.939819,1144.656738 607.642029,1171.721436 627.029541,1196.735596 
	C637.801392,1210.633789 649.460205,1223.840942 660.466431,1237.562256 
	C672.613892,1252.706299 687.427856,1263.516479 706.764771,1267.377075 
	C710.915039,1268.205811 715.088623,1269.290649 719.279480,1269.433472 
	C723.193970,1269.566895 727.145752,1268.605469 731.239746,1268.409180 
	C737.790771,1278.208618 744.218994,1287.700684 750.568848,1297.245117 
	C772.244995,1329.826538 793.938293,1362.396851 815.517761,1395.042236 
	C820.263489,1402.221680 824.567505,1409.692871 829.137817,1417.409424 
	C831.474304,1428.822388 833.727356,1439.860229 836.028259,1450.888062 
	C837.743103,1459.106445 839.519653,1467.312012 841.063477,1475.941895 
	C843.762146,1493.723511 846.668945,1511.086182 849.568970,1528.449829 
	C851.383972,1539.317139 853.343018,1550.163208 854.962097,1561.059570 
	C857.480408,1578.008301 859.801819,1594.986816 862.137207,1611.962158 
	C864.473145,1628.941650 866.670837,1645.940186 869.041016,1662.914795 
	C869.846069,1668.680298 870.991699,1674.398315 872.001587,1680.597656 
	C872.014404,1706.329712 871.932800,1731.602539 872.070312,1756.874146 
	C872.094360,1761.303833 872.514465,1765.866699 873.640442,1770.133423 
	C881.314819,1799.212891 899.634094,1817.857544 928.424927,1825.768921 
	C927.684143,1827.783447 927.079102,1829.636597 927.048584,1831.499023 
	C926.932495,1838.594360 927.001709,1845.692627 927.001709,1852.460938 
	C915.817566,1853.001343 905.189758,1852.413574 894.990784,1854.231323 
	C871.955383,1858.336914 860.115601,1883.897095 871.851379,1904.635010 
	C876.562683,1912.960205 883.894226,1917.264282 892.000000,1921.000000 
M375.997986,1744.495850 
	C375.997986,1749.456909 375.997986,1754.418091 375.997986,1759.379150 
	C376.222168,1759.369385 376.446350,1759.359497 376.670532,1759.349731 
	C376.670532,1732.448486 376.670532,1705.547241 376.670532,1678.645874 
	C376.446350,1678.646240 376.222168,1678.646484 375.997986,1678.646729 
	C375.997986,1700.263672 375.997986,1721.880615 375.997986,1744.495850 
M910.493896,1850.999023 
	C906.204834,1850.999023 901.915771,1850.999023 897.626709,1850.999023 
	C905.960754,1851.979614 914.266785,1852.061523 922.567200,1851.882935 
	C923.689148,1851.858765 925.721375,1850.555420 925.744873,1849.795410 
	C925.982422,1842.093506 925.889832,1834.381348 925.889832,1826.672119 
	C925.427124,1826.674316 924.964478,1826.676636 924.501770,1826.678955 
	C924.501770,1830.447388 924.508972,1834.215942 924.500427,1837.984497 
	C924.470947,1850.999023 924.468872,1850.999023 910.493896,1850.999023 
M321.036102,1849.152344 
	C322.100616,1850.092407 323.148743,1851.826538 324.232147,1851.848633 
	C334.358124,1852.057251 344.490112,1851.972290 355.403931,1851.972290 
	C352.611053,1851.582031 350.532227,1851.070679 348.446442,1851.040283 
	C341.293701,1850.935913 334.130280,1850.794434 326.987427,1851.079956 
	C322.959930,1851.241089 321.779633,1849.764404 321.934753,1845.911255 
	C322.189026,1839.595337 322.003571,1833.261841 322.003571,1826.935669 
	C321.671661,1826.934937 321.339783,1826.934204 321.007874,1826.933594 
	C321.007874,1834.027466 321.007874,1841.121338 321.036102,1849.152344 
z"/>
<path fill="#A3CDED" opacity="1.000000" stroke="none" 
	d="
M319.111115,1825.478760 
	C319.406982,1830.569702 319.786102,1835.657593 319.971283,1840.752441 
	C320.109924,1844.565674 319.998657,1848.387939 319.998657,1853.001587 
	C328.678375,1853.001587 337.103119,1852.833008 345.518463,1853.042114 
	C357.340454,1853.335693 366.809113,1858.325684 373.572510,1868.107788 
	C387.668823,1888.495850 375.967133,1914.124756 354.135254,1920.660522 
	C244.979111,1921.000000 135.958206,1921.000000 26.468636,1921.000000 
	C25.072510,1919.559082 24.484346,1917.501831 23.163862,1916.774658 
	C12.771002,1911.052856 4.158489,1895.061279 6.082934,1883.945068 
	C8.474660,1870.129639 15.661646,1859.968384 29.924282,1854.713379 
	C40.453503,1853.983521 50.265862,1853.546875 60.071682,1852.994263 
	C61.939255,1852.889038 63.781067,1852.326538 65.634773,1851.975098 
	C65.764694,1843.996582 65.894608,1836.017944 66.484055,1827.578125 
	C71.425285,1827.397217 75.905655,1827.893555 80.388908,1827.921265 
	C101.883286,1828.053711 123.378441,1828.059326 144.921509,1828.568726 
	C144.969681,1836.941040 144.969681,1844.854614 144.969681,1852.740723 
	C177.408615,1852.740723 208.993851,1852.740723 241.080688,1852.740723 
	C241.080688,1844.343506 241.080688,1836.209229 241.541901,1828.024780 
	C254.310989,1827.969116 266.629517,1828.282471 278.923889,1827.871704 
	C292.331299,1827.423950 305.716339,1826.305176 319.111115,1825.478760 
z"/>
<path fill="#A3CDED" opacity="1.000000" stroke="none" 
	d="
M892.468628,1921.000000 
	C883.894226,1917.264282 876.562683,1912.960205 871.851379,1904.635010 
	C860.115601,1883.897095 871.955383,1858.336914 894.990784,1854.231323 
	C905.189758,1852.413574 915.817566,1853.001343 927.001709,1852.460938 
	C927.001709,1845.692627 926.932495,1838.594360 927.048584,1831.499023 
	C927.079102,1829.636597 927.684143,1827.783447 928.851196,1825.897949 
	C936.768188,1826.566040 943.850952,1827.740112 950.952271,1827.865234 
	C969.263977,1828.187622 987.583862,1828.046021 1005.941528,1828.550293 
	C1005.982666,1836.915527 1005.982666,1844.819946 1005.982666,1852.896484 
	C1037.433105,1852.896484 1068.136108,1852.896484 1099.280518,1852.948486 
	C1100.492188,1851.741821 1101.886475,1850.504028 1101.929199,1849.221191 
	C1102.163818,1842.184814 1102.067017,1835.137329 1102.526855,1828.026611 
	C1103.563843,1827.884644 1104.157959,1827.810059 1105.000977,1827.918213 
	C1128.708862,1855.337891 1156.908813,1876.075439 1190.696899,1888.476685 
	C1205.782715,1894.013550 1221.567017,1897.647339 1237.034424,1902.144775 
	C1232.413574,1910.845581 1226.157959,1917.676758 1216.121826,1920.661621 
	C1108.312500,1921.000000 1000.624878,1921.000000 892.468628,1921.000000 
z"/>
<path fill="#2871B2" opacity="1.000000" stroke="none" 
	d="
M642.531372,0.999999 
	C649.097778,2.289768 655.179321,3.662637 661.296021,4.855157 
	C690.086975,10.468225 714.832214,23.494160 734.105530,45.776737 
	C748.530029,62.453430 757.128845,82.176834 760.897583,103.840561 
	C762.282959,111.803627 762.369812,119.992584 762.760376,128.402130 
	C749.765625,121.799927 737.363464,114.226471 724.287292,108.088806 
	C700.189087,96.777603 674.807434,89.137466 648.269104,86.499809 
	C634.272827,85.108711 620.000488,84.491425 606.013794,85.584541 
	C592.679871,86.626640 579.469910,89.972527 566.357300,92.969597 
	C544.153687,98.044525 523.229614,106.591934 503.390717,117.763878 
	C496.877197,121.431854 490.469818,125.288361 484.013916,129.058640 
	C482.868927,112.193542 486.841888,96.174652 492.425415,80.511658 
	C497.033936,67.583755 503.957001,55.810432 512.967957,45.501904 
	C527.568848,28.798496 545.446167,16.551641 566.728271,10.141156 
	C579.037781,6.433351 591.844360,4.375499 604.713623,1.287543 
	C617.354248,1.000000 629.708435,1.000000 642.531372,0.999999 
M707.007141,76.508179 
	C700.946472,69.872627 694.950012,63.176777 688.801636,56.623520 
	C684.955444,52.524055 678.884399,52.818146 677.934998,57.500584 
	C676.880249,62.702473 677.528748,68.305367 677.909607,73.700211 
	C677.995667,74.918221 679.837463,76.522499 681.216553,77.056030 
	C690.056274,80.476044 698.957092,83.751198 707.934387,86.788696 
	C709.293152,87.248421 711.154846,86.221428 712.783936,85.882118 
	C712.393616,84.381096 712.323303,82.677879 711.534119,81.428894 
	C710.486572,79.771187 708.878052,78.468002 707.007141,76.508179 
M552.000977,62.509178 
	C546.302551,68.754608 540.525513,74.931648 534.978210,81.308533 
	C533.979309,82.456779 533.926453,84.427933 533.436768,86.019150 
	C535.257263,86.239792 537.263367,87.064491 538.864746,86.572296 
	C544.567627,84.819519 550.168091,82.710541 555.743286,80.569733 
	C570.587158,74.869911 569.046997,77.873360 569.018433,60.270325 
	C569.018127,60.104378 569.064453,59.902115 568.988770,59.777981 
	C567.846008,57.904251 567.056763,55.037056 565.433655,54.438213 
	C563.558167,53.746235 560.558411,54.461300 558.746155,55.640396 
	C556.312805,57.223537 554.549316,59.836349 552.000977,62.509178 
M656.031006,21.476057 
	C653.669617,24.103912 651.308228,26.731770 648.946777,29.359625 
	C649.215393,30.038147 649.483948,30.716669 649.752563,31.395189 
	C660.137451,30.212418 670.522400,29.029648 680.907349,27.846876 
	C681.023010,27.274050 681.138672,26.701221 681.254272,26.128395 
	C680.187317,25.342209 679.202942,24.393822 678.037781,23.800497 
	C674.639771,22.070166 671.046509,20.693756 667.757446,18.786055 
	C663.235596,16.163383 659.601379,16.743408 656.031006,21.476057 
M587.578918,18.693653 
	C583.180359,16.309057 569.679504,21.130451 564.602417,27.755440 
	C575.709351,29.004866 586.048035,30.167875 596.386719,31.330885 
	C596.647949,30.670364 596.909180,30.009844 597.170410,29.349323 
	C594.151733,25.966965 591.133118,22.584608 587.578918,18.693653 
z"/>
<path fill="#2871B2" opacity="1.000000" stroke="none" 
	d="
M801.070007,309.125977 
	C824.730164,314.611023 846.733215,324.267303 868.013855,335.736328 
	C886.204956,345.540314 903.276733,357.021149 919.162659,370.230743 
	C924.396240,374.582581 929.351501,379.269104 934.903564,384.249390 
	C940.197632,389.459351 945.022034,394.222504 949.846436,398.985657 
	C965.289795,415.363617 978.693909,433.278687 990.304382,452.554443 
	C1009.143738,483.832031 1022.430603,517.359863 1030.966919,552.810669 
	C1036.764038,576.885986 1041.024902,601.201843 1042.016479,626.001160 
	C1042.726685,643.765076 1043.740723,661.530518 1043.850830,679.300049 
	C1043.922729,690.896973 1042.618652,702.502502 1041.560303,714.654968 
	C1009.987976,731.198853 978.797974,747.215088 947.580811,763.178162 
	C920.366577,777.094299 893.121521,790.950134 865.757202,804.452148 
	C865.442444,801.760132 865.103577,799.448547 865.101990,797.136780 
	C865.071045,750.319397 865.079895,703.502014 865.074829,656.684631 
	C865.074646,654.852783 865.150940,653.006409 864.955566,651.192139 
	C864.538330,647.317078 862.318054,645.027649 858.384216,645.093445 
	C854.441833,645.159363 852.359314,647.561829 852.006775,651.421204 
	C851.870850,652.909729 851.928223,654.417542 851.927734,655.916565 
	C851.923218,671.244690 851.965759,686.572937 851.913513,701.900879 
	C851.861328,717.224670 851.716064,732.548218 851.438965,747.775452 
	C851.266418,747.679077 851.253540,747.283936 851.092041,747.199951 
	C850.607483,747.112549 850.284485,747.109070 849.508667,747.226562 
	C848.223999,747.370850 847.392151,747.414673 846.560303,747.414673 
	C713.538818,747.418152 580.517273,747.419434 447.495758,747.405457 
	C446.009155,747.405273 444.522552,747.204407 442.906006,747.025757 
	C442.492706,746.846802 442.221802,746.894714 441.791443,747.247925 
	C441.619507,747.397766 441.178650,747.514893 440.950684,747.226929 
	C424.907867,723.334290 409.093018,699.729675 393.487915,675.762695 
	C394.124786,660.970459 394.550385,646.540527 394.979675,632.110779 
	C395.187225,625.135132 395.527863,618.160706 395.585388,611.183899 
	C395.685608,599.029419 395.613251,586.873474 395.613251,574.298218 
	C379.546143,585.336426 363.691711,596.228516 347.549438,606.948853 
	C346.188599,605.300903 345.059265,603.862183 344.051453,602.342834 
	C334.568604,588.047058 325.237457,573.648560 315.595093,559.461426 
	C308.476288,548.987305 294.864685,546.395935 284.699341,553.186523 
	C274.279022,560.147339 271.561829,573.751221 278.537170,584.434387 
	C283.626160,592.228455 288.890320,599.908447 293.950500,607.720886 
	C299.356476,616.067261 304.614624,624.509338 309.603088,633.006714 
	C305.388031,635.721863 301.507172,638.340027 297.300507,640.924072 
	C259.052948,613.572754 221.142471,586.239807 183.205078,558.944336 
	C161.879105,543.600525 140.508591,528.318665 119.158134,513.008972 
	C127.428497,494.833221 138.297363,478.197449 150.359970,462.419128 
	C158.573776,451.675140 167.947876,441.818176 177.256058,431.110382 
	C180.636688,427.750244 183.564407,424.844299 186.492142,421.938385 
	C209.517395,399.050751 235.930237,380.790253 264.129150,364.936737 
	C297.497467,346.176971 332.890778,332.231812 369.853973,322.820892 
	C393.089478,316.905060 416.988922,313.591614 440.603973,309.182831 
	C442.375397,308.852142 444.255127,309.101746 446.714478,309.408081 
	C454.579315,320.880524 461.896851,331.973907 469.030182,343.184540 
	C480.613556,361.388794 491.968323,379.739105 503.621460,397.898193 
	C514.464966,414.795837 525.670715,431.460876 536.535034,448.345428 
	C547.225342,464.959473 557.650818,481.743683 568.260315,498.410034 
	C576.909546,511.997070 586.123779,525.247986 594.261230,539.132202 
	C608.487549,563.405518 639.604004,563.306030 653.211182,539.726379 
	C657.199280,532.815369 661.700684,526.197998 666.031311,519.487671 
	C683.982849,491.672302 701.999084,463.898590 719.915588,436.060669 
	C739.811768,405.146729 759.642883,374.190826 779.465515,343.229614 
	C786.721375,331.896545 793.871582,320.495819 801.070007,309.125977 
z"/>
<path fill="#F6E1C5" opacity="1.000000" stroke="none" 
	d="
M865.890015,804.832520 
	C893.121521,790.950134 920.366577,777.094299 947.580811,763.178162 
	C978.797974,747.215088 1009.987976,731.198853 1041.514160,715.106689 
	C1042.224731,729.465759 1043.423828,743.960083 1042.783569,758.372681 
	C1042.043823,775.023804 1039.885986,791.626282 1037.975586,808.207520 
	C1035.558228,829.189270 1030.297119,849.573181 1024.053101,869.702576 
	C1010.479858,913.459290 990.457214,954.082153 963.524048,991.117615 
	C953.132141,1005.407410 941.309937,1018.657104 929.689636,1032.823730 
	C928.190796,1034.330811 927.117981,1035.372437 926.096191,1036.461914 
	C894.959717,1069.661255 863.828308,1102.865234 832.432861,1135.805908 
	C829.148438,1119.739868 821.477234,1106.510010 809.980835,1095.384888 
	C795.764709,1081.627930 781.413635,1068.005859 767.403259,1054.042236 
	C755.544189,1042.222778 742.508240,1032.585571 725.954224,1028.418213 
	C749.067688,988.518555 772.114868,948.965332 795.095581,909.373474 
	C804.785217,892.679932 814.334656,875.904968 824.231567,858.957520 
	C833.671814,843.145691 842.828247,827.543335 852.329590,811.872375 
	C857.079590,809.479980 861.484802,807.156250 865.890015,804.832520 
z"/>
<path fill="#2871B2" opacity="1.000000" stroke="none" 
	d="
M509.061371,1154.020996 
	C505.092987,1159.733276 501.591553,1165.850708 497.060516,1171.074951 
	C487.149506,1182.502441 481.447205,1196.106934 475.889648,1209.808838 
	C453.403259,1265.248047 437.766052,1322.751709 424.936920,1381.054932 
	C418.126678,1412.004639 412.039215,1443.113281 405.323425,1474.570312 
	C405.021332,1474.990356 404.805298,1474.851196 404.661591,1474.705322 
	C404.035522,1474.666992 403.553131,1474.774536 402.602661,1474.955566 
	C348.052795,1475.038452 293.971039,1475.054321 239.889267,1475.049805 
	C232.904221,1475.049194 225.919189,1474.942261 218.843933,1474.805908 
	C218.538193,1474.602051 218.323807,1474.625854 217.860062,1474.873291 
	C217.439331,1474.984985 217.269135,1475.022339 217.098938,1475.059692 
	C219.704117,1459.373291 222.266266,1443.679443 224.924850,1428.002075 
	C228.607254,1406.287476 232.236343,1384.562378 236.119919,1362.883423 
	C240.355804,1339.237549 244.603088,1315.588501 249.309814,1292.033691 
	C254.439590,1266.361694 259.897369,1240.750488 265.597046,1215.198608 
	C270.252594,1194.327881 275.474426,1173.583496 281.009705,1152.758057 
	C283.572449,1152.766724 285.570709,1152.829590 287.568939,1152.829834 
	C359.058655,1152.834839 430.548370,1152.832031 502.038086,1152.843506 
	C504.031403,1152.843750 506.024689,1152.987061 508.167358,1153.248413 
	C508.537933,1153.663452 508.786133,1153.859375 509.061371,1154.020996 
z"/>
<path fill="#F6E1C5" opacity="1.000000" stroke="none" 
	d="
M119.084457,513.384583 
	C140.508591,528.318665 161.879105,543.600525 183.205078,558.944336 
	C221.142471,586.239807 259.052948,613.572754 297.444397,641.261597 
	C305.872406,652.781677 313.801208,663.951416 321.794952,675.074463 
	C340.952942,701.732300 360.188293,728.334717 379.278900,755.040649 
	C383.176392,760.492920 386.576660,766.300659 389.856934,772.061218 
	C368.981018,781.020813 354.698151,795.890564 347.462891,817.021057 
	C341.651398,833.993408 336.711182,851.262085 331.140228,868.319519 
	C325.668213,885.073914 326.018677,901.649658 331.813873,918.201782 
	C321.073578,910.931396 310.155914,903.907227 299.637146,896.329346 
	C285.996307,886.502319 272.562775,876.377625 259.241394,866.119568 
	C242.770493,853.436279 226.493225,840.501221 210.156754,827.643799 
	C195.875000,816.403625 181.680176,805.052490 167.352982,793.870728 
	C139.921738,772.461609 113.966362,749.701782 98.778145,717.387573 
	C90.776382,700.363037 84.803001,682.649414 82.878250,663.782532 
	C82.225510,657.384277 81.230400,650.990234 81.072906,644.577454 
	C80.383789,616.518494 87.274231,590.101135 98.386528,564.512573 
	C105.658356,547.767578 112.162674,530.689209 119.084457,513.384583 
z"/>
<path fill="#313131" opacity="1.000000" stroke="none" 
	d="
M144.873322,1828.109985 
	C123.378441,1828.059326 101.883286,1828.053711 80.388908,1827.921265 
	C75.905655,1827.893555 71.425285,1827.397217 66.523369,1827.118652 
	C53.172073,1826.074829 41.831715,1820.862183 31.777210,1813.065674 
	C12.027222,1797.750854 1.438956,1777.477661 2.126602,1752.359009 
	C2.941280,1722.599976 16.946302,1700.576416 43.494663,1686.803589 
	C54.317795,1681.188599 65.918747,1678.941284 78.086708,1678.968506 
	C117.384598,1679.056152 156.682785,1679.012817 196.918411,1679.055420 
	C238.448273,1679.097046 279.040588,1679.088013 319.632904,1679.115845 
	C337.763153,1679.128174 355.893372,1679.213989 374.023560,1679.266357 
	C374.350159,1681.205811 374.955353,1683.144409 374.960846,1685.084717 
	C375.026093,1708.237061 375.309570,1731.394775 374.930023,1754.541138 
	C374.351288,1789.833618 349.027496,1817.853760 319.422607,1825.343018 
	C305.716339,1826.305176 292.331299,1827.423950 278.923889,1827.871704 
	C266.629517,1828.282471 254.310989,1827.969116 241.069092,1828.015381 
	C208.381149,1828.074097 176.627243,1828.092041 144.873322,1828.109985 
z"/>
<path fill="#F3BC2E" opacity="1.000000" stroke="none" 
	d="
M1237.402710,1902.236572 
	C1221.567017,1897.647339 1205.782715,1894.013550 1190.696899,1888.476685 
	C1156.908813,1876.075439 1128.708862,1855.337891 1104.815796,1827.609497 
	C1101.494141,1823.464355 1098.352539,1819.981934 1095.760132,1816.129761 
	C1079.149170,1791.446411 1062.636597,1766.696899 1046.137573,1741.938354 
	C1037.302734,1728.680786 1028.559082,1715.362305 1019.620972,1701.839478 
	C1021.082458,1700.815063 1022.232727,1699.916870 1023.468079,1699.157104 
	C1037.997925,1690.218262 1052.540283,1681.300049 1067.079468,1672.376343 
	C1068.911011,1674.482300 1070.742432,1676.588257 1072.845947,1679.259277 
	C1079.413940,1688.590454 1085.756470,1697.323730 1091.997070,1706.129150 
	C1106.823120,1727.049316 1124.281494,1745.187744 1146.052612,1759.097046 
	C1172.526978,1776.011230 1201.332886,1786.934082 1231.824829,1793.802490 
	C1243.190796,1795.674194 1254.529419,1797.741089 1265.934448,1799.332520 
	C1271.383423,1800.092896 1276.969116,1799.817383 1282.473145,1800.256226 
	C1287.871704,1800.686890 1293.231567,1801.688721 1298.633179,1801.977783 
	C1308.392334,1802.500000 1318.186401,1803.200073 1327.936157,1802.888794 
	C1346.943726,1802.282227 1365.929932,1801.015869 1384.926392,1800.049927 
	C1392.530640,1799.663086 1400.137939,1799.327148 1407.745361,1799.006104 
	C1416.515503,1798.636108 1425.287476,1798.308228 1434.937988,1797.955688 
	C1437.216431,1797.911743 1438.615601,1797.874023 1440.014648,1797.836426 
	C1459.023315,1798.522827 1478.019043,1799.257080 1496.598267,1803.979980 
	C1510.295898,1807.461792 1522.966675,1812.738281 1532.360474,1823.878784 
	C1543.039185,1836.542969 1543.911499,1860.240601 1528.250000,1874.615234 
	C1516.259277,1885.620605 1501.930420,1891.809448 1486.881958,1896.927124 
	C1470.768921,1902.406860 1453.964844,1904.826050 1437.350586,1907.993774 
	C1428.627075,1909.657227 1419.662476,1910.055054 1409.965332,1911.037842 
	C1405.571655,1911.369751 1402.019165,1911.688232 1398.466797,1912.006714 
	C1368.286621,1912.018066 1338.106567,1912.029297 1307.042725,1912.044678 
	C1300.618652,1911.708618 1295.078369,1911.368774 1289.537964,1911.028809 
	C1283.251465,1910.060669 1276.967407,1909.075073 1270.677490,1908.129761 
	C1265.791138,1907.395386 1260.874023,1906.840454 1256.012329,1905.972168 
	C1249.909546,1904.882324 1243.849487,1903.553955 1237.402710,1902.236572 
z"/>
<path fill="#2871B2" opacity="1.000000" stroke="none" 
	d="
M964.877502,1152.775146 
	C967.867737,1164.125244 971.179932,1175.402222 973.784302,1186.840332 
	C980.156067,1214.824219 986.653076,1242.792236 992.267273,1270.932739 
	C999.956604,1309.474731 1006.988770,1348.149780 1014.080994,1386.808472 
	C1018.150391,1408.989624 1021.805725,1431.247192 1025.594604,1453.479370 
	C1026.736206,1460.177979 1027.700073,1466.906860 1028.395020,1473.996094 
	C997.893738,1474.387939 967.742737,1474.393677 937.591858,1474.448853 
	C935.456848,1474.452881 933.322571,1474.821289 930.899170,1474.732666 
	C930.012817,1473.645020 929.382996,1472.866943 928.822266,1472.041870 
	C885.217346,1407.870728 841.737122,1343.614502 797.890747,1279.608887 
	C791.227600,1269.882324 787.766357,1259.232422 784.951172,1247.953613 
	C785.775208,1247.337158 786.302856,1246.912354 786.900085,1246.640015 
	C815.612000,1233.541382 830.548706,1211.184814 832.106689,1179.709839 
	C832.547485,1170.803955 833.386597,1161.917725 834.294434,1153.022949 
	C834.708923,1153.062012 834.872009,1153.100586 835.153931,1153.197998 
	C835.272705,1153.256592 835.643860,1153.271362 835.643860,1153.271362 
	C835.643860,1153.271362 835.981262,1153.069824 836.442993,1152.976318 
	C879.562256,1152.846924 922.219910,1152.811035 964.877502,1152.775146 
z"/>
<path fill="#F3BC2E" opacity="1.000000" stroke="none" 
	d="
M508.018005,1153.063721 
	C506.024689,1152.987061 504.031403,1152.843750 502.038086,1152.843506 
	C430.548370,1152.832031 359.058655,1152.834839 287.568939,1152.829834 
	C285.570709,1152.829590 283.572449,1152.766724 281.237366,1152.489014 
	C283.037964,1143.299438 284.793610,1134.241699 287.380310,1125.427979 
	C297.424744,1091.203247 307.187378,1056.880005 318.128357,1022.939331 
	C325.886841,998.871216 335.365814,975.357483 344.088593,951.600647 
	C344.935699,949.293518 345.865448,947.016663 347.233643,944.450439 
	C363.709778,958.196960 379.700104,972.229065 395.710327,986.238464 
	C419.828247,1007.342102 452.169556,1011.752258 480.062897,995.964294 
	C497.339233,986.185730 513.296875,974.077332 529.974976,963.342224 
	C548.481873,991.420410 566.866516,1019.167114 585.217468,1046.936035 
	C586.019226,1048.149292 586.513000,1049.566040 587.150269,1050.888062 
	C571.383789,1072.052246 555.663086,1093.250977 539.833679,1114.367920 
	C530.167236,1127.263184 520.333374,1140.032959 509.946136,1152.929443 
	C508.884369,1153.021118 508.451202,1153.042358 508.018005,1153.063721 
z"/>
<path fill="#23577D" opacity="1.000000" stroke="none" 
	d="
M529.846436,963.014771 
	C513.296875,974.077332 497.339233,986.185730 480.062897,995.964294 
	C452.169556,1011.752258 419.828247,1007.342102 395.710327,986.238464 
	C379.700104,972.229065 363.709778,958.196960 347.382416,944.114746 
	C342.050018,935.654785 337.045715,927.255127 331.927643,918.528687 
	C326.018677,901.649658 325.668213,885.073914 331.140228,868.319519 
	C336.711182,851.262085 341.651398,833.993408 347.462891,817.021057 
	C354.698151,795.890564 368.981018,781.020813 390.044922,771.974854 
	C390.818817,771.595276 390.961304,771.361267 391.395874,771.037231 
	C394.604645,770.076843 397.427155,769.149170 400.669495,768.185059 
	C402.083282,768.063293 403.095398,768.070374 404.068542,767.879089 
	C420.091125,764.730347 435.452789,766.916138 450.203979,773.692749 
	C454.398651,775.619812 458.441406,777.877625 462.763184,780.213074 
	C466.926575,783.252502 470.880615,786.062683 475.038727,789.093872 
	C475.764313,789.584412 476.285828,789.854004 477.013123,790.392639 
	C488.589691,798.731262 499.884857,806.910217 511.354950,814.836060 
	C520.823975,821.379395 529.740051,828.396912 536.540710,837.885376 
	C542.658264,846.420898 546.045044,856.070374 548.939392,866.399597 
	C550.290833,882.948486 551.688171,899.061584 552.930298,915.529419 
	C550.760620,934.332642 542.386658,949.687134 529.846436,963.014771 
z"/>
<path fill="#F6E1C5" opacity="1.000000" stroke="none" 
	d="
M374.346619,1679.019043 
	C355.893372,1679.213989 337.763153,1679.128174 319.632904,1679.115845 
	C279.040588,1679.088013 238.448273,1679.097046 197.380630,1679.032349 
	C196.905319,1674.397949 196.663269,1669.806885 196.947571,1665.248901 
	C198.131210,1646.271118 199.309387,1627.290283 200.810349,1608.335938 
	C201.968658,1593.708862 203.364563,1579.091187 205.093277,1564.521362 
	C206.993591,1548.505005 209.405960,1532.549805 211.576263,1516.565430 
	C213.414688,1503.025146 215.226059,1489.481323 217.074158,1475.499390 
	C217.269135,1475.022339 217.439331,1474.984985 218.059631,1474.951782 
	C218.509735,1474.955933 218.934143,1474.884521 218.934143,1474.884521 
	C225.919189,1474.942261 232.904221,1475.049194 239.889267,1475.049805 
	C293.971039,1475.054321 348.052795,1475.038452 402.891418,1475.003662 
	C404.033966,1474.936157 404.419617,1474.893677 404.805298,1474.851196 
	C404.805298,1474.851196 405.021332,1474.990356 405.141357,1474.954468 
	C403.113770,1487.996948 400.971191,1501.076172 398.817108,1514.153442 
	C396.549011,1527.922729 394.178253,1541.675781 392.017517,1555.461914 
	C388.983612,1574.819458 386.000305,1594.186035 383.194977,1613.577759 
	C381.590179,1624.670532 380.426422,1635.826294 378.980682,1646.942993 
	C377.599884,1657.559937 376.110962,1668.162842 374.346619,1679.019043 
z"/>
<path fill="#C2E0F1" opacity="1.000000" stroke="none" 
	d="
M498.605713,245.047516 
	C487.932861,232.509644 480.730255,218.281601 477.701447,202.032776 
	C477.067047,198.629410 476.537384,195.206543 476.132324,191.136948 
	C478.595245,189.146652 480.895172,187.828537 483.173676,186.474426 
	C491.172394,181.720840 498.918610,176.470383 507.201385,172.279541 
	C538.925415,156.228134 572.673523,147.819199 608.174316,145.862152 
	C639.188538,144.152435 669.561768,147.434448 699.310730,156.236023 
	C724.857056,163.794174 748.635986,175.048935 770.033325,191.081909 
	C767.863159,211.500473 760.898132,229.909775 746.849792,245.922333 
	C746.246155,246.565430 746.114929,246.840515 746.080078,247.161545 
	C746.080078,247.161545 746.107300,247.048737 745.834839,247.169250 
	C744.094727,248.638504 742.641907,250.003738 741.157166,251.333374 
	C726.129028,264.791748 708.757263,272.970276 688.396240,273.096741 
	C646.105591,273.359406 603.807861,273.494446 561.523132,272.930023 
	C552.089722,272.804077 542.435913,270.414978 533.348206,267.579010 
	C519.845703,263.365356 508.413666,255.297623 498.605713,245.047516 
z"/>
<path fill="#313131" opacity="1.000000" stroke="none" 
	d="
M1066.975342,1672.014893 
	C1052.540283,1681.300049 1037.997925,1690.218262 1023.468079,1699.157104 
	C1022.232727,1699.916870 1021.082458,1700.815063 1019.620972,1701.839478 
	C1028.559082,1715.362305 1037.302734,1728.680786 1046.137573,1741.938354 
	C1062.636597,1766.696899 1079.149170,1791.446411 1095.760132,1816.129761 
	C1098.352539,1819.981934 1101.494141,1823.464355 1104.566895,1827.426514 
	C1104.157959,1827.810059 1103.563843,1827.884644 1102.277832,1827.997559 
	C1101.420898,1828.061768 1101.255859,1828.087646 1100.617432,1828.084473 
	C1068.729492,1828.067017 1037.314941,1828.078369 1005.900452,1828.089722 
	C987.583862,1828.046021 969.263977,1828.187622 950.952271,1827.865234 
	C943.850952,1827.740112 936.768188,1826.566040 929.250732,1825.740723 
	C899.634094,1817.857544 881.314819,1799.212891 873.640442,1770.133423 
	C872.514465,1765.866699 872.094360,1761.303833 872.070312,1756.874146 
	C871.932800,1731.602539 872.014404,1706.329712 872.250977,1680.240967 
	C874.304749,1679.364624 876.129150,1679.253174 877.953491,1679.252808 
	C918.021973,1679.242920 958.090393,1679.245239 998.158875,1679.245239 
	C999.945374,1679.245239 1001.731934,1679.245239 1003.845154,1679.245239 
	C1003.472290,1677.937622 1003.213135,1677.028442 1003.282715,1675.996460 
	C1014.606079,1669.183350 1025.565430,1662.433960 1036.612183,1655.830688 
	C1041.225952,1653.072754 1046.025635,1650.625366 1050.740723,1648.036743 
	C1056.117554,1655.908936 1061.494385,1663.781128 1066.975342,1672.014893 
z"/>
<path fill="#F3C9A3" opacity="1.000000" stroke="none" 
	d="
M498.691040,245.445129 
	C508.413666,255.297623 519.845703,263.365356 533.348206,267.579010 
	C542.435913,270.414978 552.089722,272.804077 561.523132,272.930023 
	C603.807861,273.494446 646.105591,273.359406 688.396240,273.096741 
	C708.757263,272.970276 726.129028,264.791748 741.157166,251.333374 
	C742.641907,250.003738 744.094727,248.638504 745.890869,247.184540 
	C742.191528,260.742859 738.590637,274.550476 734.040100,288.037689 
	C726.429932,310.592926 716.325378,332.034393 702.925232,351.790680 
	C691.646301,368.419678 678.637878,383.338593 660.151917,392.365814 
	C650.036194,397.305603 639.487488,400.464264 628.056641,401.127686 
	C603.716736,402.540314 583.512268,393.442017 565.508057,378.005402 
	C545.772705,361.084656 533.914795,338.756104 523.146179,315.796021 
	C512.618652,293.349976 505.086670,269.792847 498.691040,245.445129 
M668.793213,333.276703 
	C666.279236,331.276031 664.062073,328.294495 661.204407,327.429962 
	C638.391663,320.528442 615.418274,320.231720 592.634155,327.510284 
	C589.739929,328.434845 587.608093,331.745789 585.327332,334.599152 
	C587.686768,340.061096 592.432007,342.661774 597.759216,343.647919 
	C606.708313,345.304504 615.755859,346.923065 624.819031,347.352203 
	C637.847351,347.969086 650.885742,346.954041 662.687622,340.553741 
	C665.204285,339.188934 666.837158,336.194580 668.793213,333.276703 
M650.180725,287.387543 
	C646.923279,289.172729 643.850220,291.875122 640.374329,292.573792 
	C629.265076,294.806854 618.045654,296.262329 607.615051,289.539490 
	C606.424866,288.772369 604.434143,289.247375 602.814514,289.146454 
	C603.587097,290.596649 604.020874,292.874573 605.191040,293.353485 
	C610.210510,295.407959 615.332520,297.649841 620.629028,298.494049 
	C630.154114,300.012268 639.614624,299.045227 648.103394,293.873596 
	C650.104309,292.654572 653.343933,291.262756 650.180725,287.387543 
z"/>
<path fill="#338BC1" opacity="1.000000" stroke="none" 
	d="
M770.460327,191.054703 
	C748.635986,175.048935 724.857056,163.794174 699.310730,156.236023 
	C669.561768,147.434448 639.188538,144.152435 608.174316,145.862152 
	C572.673523,147.819199 538.925415,156.228134 507.201385,172.279541 
	C498.918610,176.470383 491.172394,181.720840 483.173676,186.474426 
	C480.895172,187.828537 478.595245,189.146652 476.053650,190.727875 
	C469.222778,192.670425 463.278778,188.554916 463.069397,181.811554 
	C462.781799,172.550201 462.023712,163.198425 462.941071,154.032898 
	C463.951141,143.941681 470.622070,137.028152 479.260406,132.064468 
	C480.693542,131.240982 482.089050,130.352036 483.757935,129.276001 
	C490.469818,125.288361 496.877197,121.431854 503.390717,117.763878 
	C523.229614,106.591934 544.153687,98.044525 566.357300,92.969597 
	C579.469910,89.972527 592.679871,86.626640 606.013794,85.584541 
	C620.000488,84.491425 634.272827,85.108711 648.269104,86.499809 
	C674.807434,89.137466 700.189087,96.777603 724.287292,108.088806 
	C737.363464,114.226471 749.765625,121.799927 762.795227,128.868912 
	C766.904541,131.707550 770.782898,134.283478 774.456116,137.124619 
	C781.091309,142.256821 784.152161,149.122971 784.018433,157.515198 
	C783.909607,164.342270 784.002930,171.172470 783.995117,178.001282 
	C783.983582,188.132782 781.094482,190.999283 770.460327,191.054703 
z"/>
<path fill="#2871B2" opacity="1.000000" stroke="none" 
	d="
M472.070251,307.124084 
	C479.146759,306.373383 486.223267,305.622681 493.364777,304.865051 
	C498.758179,316.529480 503.639191,328.385040 509.592621,339.675110 
	C520.102600,359.606079 532.141113,378.612793 549.271851,393.667908 
	C571.517090,413.217834 597.020935,425.205383 627.248718,423.820923 
	C653.789124,422.605377 676.857788,412.397522 696.276367,394.196106 
	C721.357849,370.686829 737.114685,341.219574 749.708801,309.813904 
	C751.291870,305.866241 752.670349,303.905609 757.466248,304.818817 
	C763.462158,305.960510 769.670898,305.984589 776.024963,307.023376 
	C775.678894,308.745697 775.207214,310.007446 774.495911,311.115448 
	C753.369812,344.022003 732.213867,376.909424 711.075928,409.808411 
	C696.596680,432.343872 682.161316,454.907562 667.661194,477.429535 
	C656.400879,494.919250 645.260132,512.490723 633.691040,529.774841 
	C627.973328,538.317078 619.216431,537.663452 613.634277,528.934753 
	C594.795410,499.476929 575.975037,470.007141 557.063232,440.596161 
	C531.125977,400.259308 505.091217,359.985138 479.161896,319.643219 
	C476.572754,315.614960 474.423615,311.303894 472.070251,307.124084 
z"/>
<path fill="#23577D" opacity="1.000000" stroke="none" 
	d="
M471.716675,307.035889 
	C474.423615,311.303894 476.572754,315.614960 479.161896,319.643219 
	C505.091217,359.985138 531.125977,400.259308 557.063232,440.596161 
	C575.975037,470.007141 594.795410,499.476929 613.634277,528.934753 
	C619.216431,537.663452 627.973328,538.317078 633.691040,529.774841 
	C645.260132,512.490723 656.400879,494.919250 667.661194,477.429535 
	C682.161316,454.907562 696.596680,432.343872 711.075928,409.808411 
	C732.213867,376.909424 753.369812,344.022003 774.495911,311.115448 
	C775.207214,310.007446 775.678894,308.745697 776.428650,307.194641 
	C784.518555,307.566772 792.442078,308.299774 800.717773,309.079376 
	C793.871582,320.495819 786.721375,331.896545 779.465515,343.229614 
	C759.642883,374.190826 739.811768,405.146729 719.915588,436.060669 
	C701.999084,463.898590 683.982849,491.672302 666.031311,519.487671 
	C661.700684,526.197998 657.199280,532.815369 653.211182,539.726379 
	C639.604004,563.306030 608.487549,563.405518 594.261230,539.132202 
	C586.123779,525.247986 576.909546,511.997070 568.260315,498.410034 
	C557.650818,481.743683 547.225342,464.959473 536.535034,448.345428 
	C525.670715,431.460876 514.464966,414.795837 503.621460,397.898193 
	C491.968323,379.739105 480.613556,361.388794 469.030182,343.184540 
	C461.896851,331.973907 454.579315,320.880524 447.162201,309.464478 
	C455.107635,308.445526 463.235352,307.696594 471.716675,307.035889 
z"/>
<path fill="#313131" opacity="1.000000" stroke="none" 
	d="
M1232.022705,1793.521606 
	C1201.332886,1786.934082 1172.526978,1776.011230 1146.052612,1759.097046 
	C1124.281494,1745.187744 1106.823120,1727.049316 1091.997070,1706.129150 
	C1085.756470,1697.323730 1079.413940,1688.590454 1073.091309,1679.493652 
	C1107.010620,1679.118652 1141.011963,1677.842651 1174.886230,1679.375977 
	C1208.902466,1680.915527 1236.435303,1706.201050 1243.098267,1739.688354 
	C1246.997192,1759.283447 1242.308228,1776.704468 1232.022705,1793.521606 
z"/>
<path fill="#F3BC2E" opacity="1.000000" stroke="none" 
	d="
M835.035156,1153.139282 
	C834.872009,1153.100586 834.708923,1153.062012 834.174316,1152.588135 
	C833.433960,1146.791260 833.065002,1141.429932 832.696045,1136.068481 
	C863.828308,1102.865234 894.959717,1069.661255 926.096191,1036.461914 
	C927.117981,1035.372437 928.190796,1034.330811 929.537109,1033.128906 
	C934.474182,1046.840820 939.540833,1060.564941 943.659668,1074.567993 
	C950.937134,1099.309204 957.642212,1124.218750 964.560791,1149.065186 
	C964.820984,1149.999756 964.810791,1151.009521 964.902100,1152.379639 
	C922.219910,1152.811035 879.562256,1152.846924 836.201782,1152.930664 
	C835.498962,1152.978394 835.035156,1153.139282 835.035156,1153.139282 
z"/>
<path fill="#F5E0C4" opacity="1.000000" stroke="none" 
	d="
M931.187927,1475.020142 
	C933.322571,1474.821289 935.456848,1474.452881 937.591858,1474.448853 
	C967.742737,1474.393677 997.893738,1474.387939 1028.516479,1474.399414 
	C1030.461304,1485.036255 1031.989990,1495.636353 1033.392456,1506.253174 
	C1034.989380,1518.343506 1036.458496,1530.450806 1038.010864,1542.547119 
	C1039.644531,1555.277222 1041.415771,1567.990601 1042.929810,1580.734863 
	C1044.079102,1590.410034 1045.073364,1600.109375 1045.855347,1609.820679 
	C1046.718384,1620.536987 1047.260254,1631.279053 1047.649902,1642.264893 
	C1042.273071,1635.656006 1037.188232,1628.791870 1032.032959,1621.590942 
	C1026.202026,1613.124146 1020.441589,1604.994385 1014.528809,1596.533691 
	C999.992737,1575.472290 985.608826,1554.741943 971.104370,1533.680908 
	C957.718445,1513.906860 944.453186,1494.463501 931.187927,1475.020142 
z"/>
<path fill="#F3BC2E" opacity="1.000000" stroke="none" 
	d="
M1032.103516,1621.927979 
	C1037.188232,1628.791870 1042.273071,1635.656006 1047.610352,1642.720093 
	C1048.834839,1644.402710 1049.806519,1645.885254 1050.759521,1647.702271 
	C1046.025635,1650.625366 1041.225952,1653.072754 1036.612183,1655.830688 
	C1025.565430,1662.433960 1014.606079,1669.183350 1003.005493,1675.792480 
	C996.923584,1667.185547 991.447815,1658.659790 986.279968,1649.973999 
	C1001.759827,1640.518677 1016.931641,1631.223389 1032.103516,1621.927979 
z"/>
<path fill="#4E7455" opacity="1.000000" stroke="none" 
	d="
M65.606110,1851.976562 
	C63.781067,1852.326538 61.939255,1852.889038 60.071682,1852.994263 
	C50.265862,1853.546875 40.453503,1853.983521 30.272007,1854.584839 
	C27.415623,1851.487183 30.917017,1852.684814 32.694962,1852.001465 
	C44.178989,1851.997681 54.857380,1852.007812 65.535774,1852.017822 
	C65.535774,1852.017822 65.577454,1851.978271 65.606110,1851.976562 
z"/>
<path fill="#8B9B9B" opacity="1.000000" stroke="none" 
	d="
M1045.999512,684.356201 
	C1045.999023,685.584534 1045.999023,686.401367 1045.999023,687.218140 
	C1045.790405,687.220703 1045.581665,687.223206 1045.373047,687.225769 
	C1045.373047,673.715454 1045.373047,660.205078 1045.373047,646.694702 
	C1045.582031,646.689514 1045.791138,646.684326 1046.000122,646.679138 
	C1046.000122,659.101013 1046.000122,671.522827 1045.999512,684.356201 
z"/>
<path fill="#8B9B9B" opacity="1.000000" stroke="none" 
	d="
M1440.343262,1797.585449 
	C1438.615601,1797.874023 1437.216431,1797.911743 1435.401123,1797.892822 
	C1429.483765,1797.408569 1423.982422,1796.980713 1418.481201,1796.552856 
	C1418.484619,1796.460449 1418.487915,1796.368042 1418.491333,1796.275635 
	C1430.492920,1796.275635 1442.494507,1796.275635 1454.496094,1796.275635 
	C1454.499268,1796.628662 1454.502441,1796.981567 1454.505493,1797.334595 
	C1449.894409,1797.334595 1445.283203,1797.334595 1440.343262,1797.585449 
z"/>
<path fill="#8B9B9B" opacity="1.000000" stroke="none" 
	d="
M1398.374268,1912.283936 
	C1402.019165,1911.688232 1405.571655,1911.369751 1409.568359,1911.107910 
	C1410.865845,1911.571045 1411.718994,1911.977783 1412.572021,1912.384399 
	C1412.612549,1912.697021 1412.652954,1913.009644 1412.693481,1913.322266 
	C1406.773926,1913.719116 1400.854370,1914.115967 1394.934814,1914.512817 
	C1394.881348,1914.166748 1394.828003,1913.820801 1394.774536,1913.474731 
	C1395.943604,1913.170288 1397.112793,1912.865723 1398.374268,1912.283936 
z"/>
<path fill="#8B9B9B" opacity="1.000000" stroke="none" 
	d="
M1289.541626,1911.291992 
	C1295.078369,1911.368774 1300.618652,1911.708618 1306.584961,1912.107422 
	C1306.775269,1912.778198 1306.498169,1913.936768 1306.309814,1913.922607 
	C1300.550537,1913.486938 1294.800049,1912.935913 1289.048096,1912.402954 
	C1289.213867,1912.120361 1289.379639,1911.837769 1289.541626,1911.291992 
z"/>
<path fill="#8B9B9B" opacity="1.000000" stroke="none" 
	d="
M1044.000732,744.999146 
	C1044.000732,738.875305 1044.000732,733.250610 1044.000732,727.625854 
	C1044.226074,727.626099 1044.451416,727.626343 1044.676758,727.626587 
	C1044.676758,738.872559 1044.676758,750.118469 1044.676758,761.364441 
	C1044.451416,761.373474 1044.226074,761.382446 1044.000732,761.391479 
	C1044.000732,756.093750 1044.000732,750.796021 1044.000732,744.999146 
z"/>
<path fill="#8B9B9B" opacity="1.000000" stroke="none" 
	d="
M949.966309,398.711243 
	C945.022034,394.222504 940.197632,389.459351 935.194702,384.425110 
	C935.319885,384.020416 935.818054,383.696991 935.899597,383.780487 
	C940.650269,388.644592 945.366577,393.542358 949.966309,398.711243 
z"/>
<path fill="#8B9B9B" opacity="1.000000" stroke="none" 
	d="
M785.260864,182.219025 
	C785.095825,172.201965 785.095825,162.464935 785.095825,152.727921 
	C785.205872,152.727295 785.315918,152.726669 785.425964,152.726044 
	C785.425964,162.650391 785.425964,172.574738 785.260864,182.219025 
z"/>
<path fill="#8B9B9B" opacity="1.000000" stroke="none" 
	d="
M65.145805,1851.768555 
	C54.857380,1852.007812 44.178989,1851.997681 32.981636,1852.003052 
	C35.516724,1851.678955 38.570923,1851.054443 41.624790,1851.056152 
	C49.335228,1851.060303 57.045502,1851.346069 65.145805,1851.768555 
z"/>
<path fill="#8B9B9B" opacity="1.000000" stroke="none" 
	d="
M186.156311,421.882874 
	C183.564407,424.844299 180.636688,427.750244 177.431717,430.819061 
	C177.244797,427.348419 181.634842,422.710876 186.156311,421.882874 
z"/>
<path fill="#F3C9A3" opacity="1.000000" stroke="none" 
	d="
M746.342468,247.127380 
	C746.114929,246.840515 746.246155,246.565430 746.673462,246.219299 
	C746.783813,246.432587 746.694336,246.762894 746.342468,247.127380 
z"/>
<path fill="#23577D" opacity="1.000000" stroke="none" 
	d="
M832.432861,1135.805908 
	C833.065002,1141.429932 833.433960,1146.791260 833.922974,1152.587646 
	C833.386597,1161.917725 832.547485,1170.803955 832.106689,1179.709839 
	C830.548706,1211.184814 815.612000,1233.541382 786.900085,1246.640015 
	C786.302856,1246.912354 785.775208,1247.337158 784.620361,1248.027344 
	C766.231506,1254.560425 750.194092,1265.463013 731.081116,1268.125977 
	C727.145752,1268.605469 723.193970,1269.566895 719.279480,1269.433472 
	C715.088623,1269.290649 710.915039,1268.205811 706.764771,1267.377075 
	C687.427856,1263.516479 672.613892,1252.706299 660.466431,1237.562256 
	C649.460205,1223.840942 637.801392,1210.633789 627.029541,1196.735596 
	C607.642029,1171.721436 604.939819,1144.656738 618.491028,1116.017578 
	C620.168884,1112.471558 621.880554,1108.941528 623.907959,1104.802734 
	C629.502075,1093.944336 634.741028,1083.675049 640.036926,1073.435059 
	C642.897705,1067.903442 645.855713,1062.421997 649.069702,1056.751953 
	C651.935791,1053.700806 654.502075,1050.815552 657.389893,1047.849854 
	C677.089661,1029.468018 699.985291,1023.769714 725.861084,1028.749146 
	C742.508240,1032.585571 755.544189,1042.222778 767.403259,1054.042236 
	C781.413635,1068.005859 795.764709,1081.627930 809.980835,1095.384888 
	C821.477234,1106.510010 829.148438,1119.739868 832.432861,1135.805908 
z"/>
<path fill="#313131" opacity="1.000000" stroke="none" 
	d="
M731.239746,1268.409180 
	C750.194092,1265.463013 766.231506,1254.560425 784.356445,1248.290039 
	C787.766357,1259.232422 791.227600,1269.882324 797.890747,1279.608887 
	C841.737122,1343.614502 885.217346,1407.870728 928.822266,1472.041870 
	C929.382996,1472.866943 930.012817,1473.645020 930.899170,1474.732666 
	C944.453186,1494.463501 957.718445,1513.906860 970.913330,1533.977295 
	C955.924072,1543.436279 941.005371,1552.268311 925.877502,1560.821777 
	C916.943787,1547.498413 908.250854,1534.432495 899.486267,1521.414795 
	C889.139587,1506.047241 878.730896,1490.721436 868.232971,1475.061523 
	C855.659790,1455.827393 843.208130,1436.905762 830.715576,1418.011108 
	C830.398682,1417.531860 829.631897,1417.350220 829.074951,1417.029785 
	C824.567505,1409.692871 820.263489,1402.221680 815.517761,1395.042236 
	C793.938293,1362.396851 772.244995,1329.826538 750.568848,1297.245117 
	C744.218994,1287.700684 737.790771,1278.208618 731.239746,1268.409180 
M785.793274,1259.293823 
	C785.953979,1259.323364 786.122375,1259.396606 786.272949,1259.369873 
	C786.409424,1259.345581 786.647278,1259.173584 786.634094,1259.132080 
	C786.311462,1258.114136 785.961182,1257.104980 785.615845,1256.094116 
	C785.245300,1256.222534 784.874756,1256.350952 784.504272,1256.479492 
	C784.768372,1257.298706 785.032471,1258.118042 785.793274,1259.293823 
M783.291687,1250.476929 
	C783.291687,1250.476929 783.588623,1250.619629 783.588623,1250.619629 
	C783.588623,1250.619629 783.524719,1250.296509 783.291687,1250.476929 
M784.291687,1252.476929 
	C784.291687,1252.476929 784.588623,1252.619629 784.588623,1252.619629 
	C784.588623,1252.619629 784.524719,1252.296509 784.291687,1252.476929 
z"/>
<path fill="#F6E1C5" opacity="1.000000" stroke="none" 
	d="
M868.349121,1475.377563 
	C878.730896,1490.721436 889.139587,1506.047241 899.486267,1521.414795 
	C908.250854,1534.432495 916.943787,1547.498413 925.997559,1561.130371 
	C933.563049,1572.519653 940.783081,1583.332764 948.040710,1594.120605 
	C955.008301,1604.477051 962.014832,1614.807495 969.084839,1625.475830 
	C974.767578,1633.912842 980.369751,1642.023438 985.971924,1650.133911 
	C991.447815,1658.659790 996.923584,1667.185547 1002.676636,1675.915283 
	C1003.213135,1677.028442 1003.472290,1677.937622 1003.845154,1679.245239 
	C1001.731934,1679.245239 999.945374,1679.245239 998.158875,1679.245239 
	C958.090393,1679.245239 918.021973,1679.242920 877.953491,1679.252808 
	C876.129150,1679.253174 874.304749,1679.364624 872.231079,1679.781250 
	C870.991699,1674.398315 869.846069,1668.680298 869.041016,1662.914795 
	C866.670837,1645.940186 864.473145,1628.941650 862.137207,1611.962158 
	C859.801819,1594.986816 857.480408,1578.008301 854.962097,1561.059570 
	C853.343018,1550.163208 851.383972,1539.317139 849.568970,1528.449829 
	C846.668945,1511.086182 843.762146,1493.723511 841.488037,1476.062988 
	C850.861572,1475.636230 859.605347,1475.506836 868.349121,1475.377563 
z"/>
<path fill="#313131" opacity="1.000000" stroke="none" 
	d="
M648.769897,1056.917969 
	C645.855713,1062.421997 642.897705,1067.903442 640.036926,1073.435059 
	C634.741028,1083.675049 629.502075,1093.944336 624.026001,1104.465576 
	C617.772949,1095.824463 611.725098,1086.924561 605.695679,1078.011963 
	C599.679565,1069.119141 593.681824,1060.213623 587.413086,1051.100830 
	C586.513000,1049.566040 586.019226,1048.149292 585.217468,1046.936035 
	C566.866516,1019.167114 548.481873,991.420410 529.974976,963.342163 
	C542.386658,949.687134 550.760620,934.332642 553.204224,915.694824 
	C569.818970,939.625122 585.971191,963.767395 602.206238,987.853821 
	C609.055542,998.015503 616.079346,1008.059509 623.179626,1018.453491 
	C631.813538,1031.472656 640.291687,1044.195312 648.769897,1056.917969 
z"/>
<path fill="#2871B2" opacity="1.000000" stroke="none" 
	d="
M868.232910,1475.061523 
	C859.605347,1475.506836 850.861572,1475.636230 841.693237,1475.644409 
	C839.519653,1467.312012 837.743103,1459.106445 836.028259,1450.888062 
	C833.727356,1439.860229 831.474304,1428.822388 829.137817,1417.409424 
	C829.631897,1417.350220 830.398682,1417.531860 830.715576,1418.011108 
	C843.208130,1436.905762 855.659790,1455.827393 868.232910,1475.061523 
z"/>
<path fill="#8B9B9B" opacity="1.000000" stroke="none" 
	d="
M375.997986,1743.996704 
	C375.997986,1721.880615 375.997986,1700.263672 375.997986,1678.646729 
	C376.222168,1678.646484 376.446350,1678.646240 376.670532,1678.645874 
	C376.670532,1705.547241 376.670532,1732.448486 376.670532,1759.349731 
	C376.446350,1759.359497 376.222168,1759.369385 375.997986,1759.379150 
	C375.997986,1754.418091 375.997986,1749.456909 375.997986,1743.996704 
z"/>
<path fill="#8B9B9B" opacity="1.000000" stroke="none" 
	d="
M910.987000,1850.999023 
	C924.468872,1850.999023 924.470947,1850.999023 924.500427,1837.984497 
	C924.508972,1834.215942 924.501770,1830.447388 924.501770,1826.678955 
	C924.964478,1826.676636 925.427124,1826.674316 925.889832,1826.672119 
	C925.889832,1834.381348 925.982422,1842.093506 925.744873,1849.795410 
	C925.721375,1850.555420 923.689148,1851.858765 922.567200,1851.882935 
	C914.266785,1852.061523 905.960754,1851.979614 897.626709,1850.999023 
	C901.915771,1850.999023 906.204834,1850.999023 910.987000,1850.999023 
z"/>
<path fill="#8B9B9B" opacity="1.000000" stroke="none" 
	d="
M321.021973,1848.683838 
	C321.007874,1841.121338 321.007874,1834.027466 321.007874,1826.933594 
	C321.339783,1826.934204 321.671661,1826.934937 322.003571,1826.935669 
	C322.003571,1833.261841 322.189026,1839.595337 321.934753,1845.911255 
	C321.779633,1849.764404 322.959930,1851.241089 326.987427,1851.079956 
	C334.130280,1850.794434 341.293701,1850.935913 348.446442,1851.040283 
	C350.532227,1851.070679 352.611053,1851.582031 355.403931,1851.972290 
	C344.490112,1851.972290 334.358124,1852.057251 324.232147,1851.848633 
	C323.148743,1851.826538 322.100616,1850.092407 321.021973,1848.683838 
z"/>
<path fill="#0A66C4" opacity="1.000000" stroke="none" 
	d="
M508.167358,1153.248535 
	C508.451202,1153.042358 508.884369,1153.021118 509.634033,1153.086304 
	C509.823700,1153.426636 509.645660,1153.637207 509.238831,1153.912842 
	C508.786133,1153.859375 508.537933,1153.663452 508.167358,1153.248535 
z"/>
<path fill="#47704C" opacity="1.000000" stroke="none" 
	d="
M144.921509,1828.568726 
	C176.627243,1828.092041 208.381149,1828.074097 240.607880,1828.065430 
	C241.080688,1836.209229 241.080688,1844.343506 241.080688,1852.740723 
	C208.993851,1852.740723 177.408615,1852.740723 144.969681,1852.740723 
	C144.969681,1844.854614 144.969681,1836.941040 144.921509,1828.568726 
M238.137833,1831.977539 
	C238.091370,1836.802124 237.867706,1841.633789 238.057968,1846.449097 
	C238.195038,1849.917480 236.962921,1851.071899 233.474487,1851.058105 
	C206.175018,1850.949463 178.874725,1850.952515 151.575195,1851.055664 
	C148.147339,1851.068604 146.794281,1850.027588 146.946640,1846.496460 
	C147.174622,1841.213013 147.005875,1835.912354 147.005875,1830.619019 
	C146.002380,1836.274536 146.172882,1841.917236 145.940826,1847.543335 
	C145.792755,1851.133057 147.249390,1852.108032 150.621826,1852.052124 
	C160.273987,1851.891479 169.930573,1851.998901 179.585419,1851.998901 
	C197.729874,1851.998779 215.874374,1852.013184 234.018753,1851.975708 
	C236.216415,1851.971191 239.044373,1852.677979 238.965714,1848.900879 
	C238.845016,1843.105103 238.710556,1837.309692 238.137833,1831.977539 
z"/>
<path fill="#47704C" opacity="1.000000" stroke="none" 
	d="
M1005.941528,1828.550293 
	C1037.314941,1828.078369 1068.729492,1828.067017 1100.606934,1828.544678 
	C1101.070068,1835.819092 1101.070068,1842.604492 1101.070068,1849.389893 
	C1100.660522,1849.387573 1100.250854,1849.385254 1099.841309,1849.382935 
	C1099.841309,1843.133545 1099.841309,1836.884033 1099.841309,1830.634644 
	C1098.996216,1835.800293 1098.824829,1840.944824 1099.055298,1846.071289 
	C1099.214966,1849.626587 1098.233887,1851.090088 1094.351440,1851.069946 
	C1067.060181,1850.928589 1039.767578,1850.942993 1012.476074,1851.056641 
	C1008.927429,1851.071411 1007.812683,1849.806152 1007.946960,1846.400024 
	C1008.153015,1841.175659 1008.001221,1835.937012 1008.001221,1830.704468 
	C1007.002441,1835.870605 1007.264526,1841.028931 1006.923767,1846.147095 
	C1006.624268,1850.646851 1008.029480,1852.142334 1012.721985,1852.104980 
	C1039.513062,1851.891357 1066.306641,1851.983032 1093.099243,1852.039795 
	C1095.013062,1852.043823 1096.925903,1852.598022 1098.839111,1852.896484 
	C1068.136108,1852.896484 1037.433105,1852.896484 1005.982666,1852.896484 
	C1005.982666,1844.819946 1005.982666,1836.915527 1005.941528,1828.550293 
z"/>
<path fill="#8B9B9B" opacity="1.000000" stroke="none" 
	d="
M1099.280518,1852.948486 
	C1096.925903,1852.598022 1095.013062,1852.043823 1093.099243,1852.039795 
	C1066.306641,1851.983032 1039.513062,1851.891357 1012.721985,1852.104980 
	C1008.029480,1852.142334 1006.624268,1850.646851 1006.923767,1846.147095 
	C1007.264526,1841.028931 1007.002441,1835.870605 1008.001221,1830.704468 
	C1008.001221,1835.937012 1008.153015,1841.175659 1007.946960,1846.400024 
	C1007.812683,1849.806152 1008.927429,1851.071411 1012.476074,1851.056641 
	C1039.767578,1850.942993 1067.060181,1850.928589 1094.351440,1851.069946 
	C1098.233887,1851.090088 1099.214966,1849.626587 1099.055298,1846.071289 
	C1098.824829,1840.944824 1098.996216,1835.800293 1099.841309,1830.634644 
	C1099.841309,1836.884033 1099.841309,1843.133545 1099.841309,1849.382935 
	C1100.250854,1849.385254 1100.660522,1849.387573 1101.070068,1849.389893 
	C1101.070068,1842.604492 1101.070068,1835.819092 1101.080566,1828.573608 
	C1101.255859,1828.087646 1101.420898,1828.061768 1101.834961,1828.064697 
	C1102.067017,1835.137329 1102.163818,1842.184814 1101.929199,1849.221191 
	C1101.886475,1850.504028 1100.492188,1851.741821 1099.280518,1852.948486 
z"/>
<path fill="#36322E" opacity="1.000000" stroke="none" 
	d="
M707.258911,76.760323 
	C708.878052,78.468002 710.486572,79.771187 711.534119,81.428894 
	C712.323303,82.677879 712.393616,84.381096 712.783936,85.882126 
	C711.154846,86.221428 709.293152,87.248421 707.934387,86.788696 
	C698.957092,83.751198 690.056274,80.476044 681.216553,77.056030 
	C679.837463,76.522499 677.995667,74.918221 677.909607,73.700211 
	C677.528748,68.305367 676.880249,62.702473 677.934998,57.500584 
	C678.884399,52.818146 684.955444,52.524055 688.801636,56.623520 
	C694.950012,63.176777 700.946472,69.872627 707.258911,76.760323 
z"/>
<path fill="#36322E" opacity="1.000000" stroke="none" 
	d="
M552.249634,62.258163 
	C554.549316,59.836349 556.312805,57.223537 558.746155,55.640396 
	C560.558411,54.461300 563.558167,53.746235 565.433655,54.438213 
	C567.056763,55.037056 567.846008,57.904251 568.988770,59.777981 
	C569.064453,59.902115 569.018127,60.104378 569.018433,60.270325 
	C569.046997,77.873360 570.587158,74.869911 555.743286,80.569733 
	C550.168091,82.710541 544.567627,84.819519 538.864746,86.572296 
	C537.263367,87.064491 535.257263,86.239792 533.436768,86.019150 
	C533.926453,84.427933 533.979309,82.456779 534.978210,81.308533 
	C540.525513,74.931648 546.302551,68.754608 552.249634,62.258163 
z"/>
<path fill="#36322E" opacity="1.000000" stroke="none" 
	d="
M656.286987,21.222385 
	C659.601379,16.743408 663.235596,16.163383 667.757446,18.786055 
	C671.046509,20.693756 674.639771,22.070166 678.037781,23.800497 
	C679.202942,24.393822 680.187317,25.342209 681.254272,26.128395 
	C681.138672,26.701221 681.023010,27.274050 680.907349,27.846876 
	C670.522400,29.029648 660.137451,30.212418 649.752563,31.395189 
	C649.483948,30.716669 649.215393,30.038147 648.946777,29.359625 
	C651.308228,26.731770 653.669617,24.103912 656.286987,21.222385 
z"/>
<path fill="#36322E" opacity="1.000000" stroke="none" 
	d="
M587.846680,18.947952 
	C591.133118,22.584608 594.151733,25.966965 597.170410,29.349323 
	C596.909180,30.009844 596.647949,30.670364 596.386719,31.330885 
	C586.048035,30.167875 575.709351,29.004866 564.602417,27.755440 
	C569.679504,21.130451 583.180359,16.309057 587.846680,18.947952 
z"/>
<path fill="#EFBB30" opacity="1.000000" stroke="none" 
	d="
M474.834656,788.872803 
	C470.880615,786.062683 466.926575,783.252502 462.622772,779.874512 
	C455.241547,768.709351 448.210114,758.112122 441.178650,747.514893 
	C441.178650,747.514893 441.619507,747.397766 442.059662,747.310913 
	C442.678528,747.181702 442.857239,747.139404 443.035950,747.097168 
	C444.522552,747.204407 446.009155,747.405273 447.495758,747.405457 
	C580.517273,747.419434 713.538818,747.418152 846.560303,747.414673 
	C847.392151,747.414673 848.223999,747.370850 849.825439,747.316223 
	C850.814575,747.284607 851.034058,747.284241 851.253540,747.283936 
	C851.253540,747.283936 851.266418,747.679077 851.458374,748.182007 
	C851.693542,761.844971 851.736694,775.005005 851.347717,788.306030 
	C849.088440,788.500061 847.261230,788.599243 845.434021,788.599365 
	C724.057434,788.606628 602.680847,788.604553 481.304230,788.617065 
	C479.147705,788.617249 476.991180,788.783813 474.834656,788.872803 
z"/>
<path fill="#313131" opacity="1.000000" stroke="none" 
	d="
M440.950684,747.226929 
	C448.210114,758.112122 455.241547,768.709351 462.413452,779.645142 
	C458.441406,777.877625 454.398651,775.619812 450.203979,773.692749 
	C435.452789,766.916138 420.091125,764.730347 404.068542,767.879089 
	C403.095398,768.070374 402.083282,768.063293 400.526978,767.840820 
	C397.344574,763.802612 394.724518,760.072266 391.966919,756.004150 
	C391.344635,754.794800 390.917145,753.885071 390.366852,753.056946 
	C365.700500,715.938599 341.032288,678.821594 316.330872,641.726624 
	C314.320312,638.707275 312.074036,635.844971 309.937286,632.909668 
	C304.614624,624.509338 299.356476,616.067261 293.950500,607.720886 
	C288.890320,599.908447 283.626160,592.228455 278.537170,584.434387 
	C271.561829,573.751221 274.279022,560.147339 284.699341,553.186523 
	C294.864685,546.395935 308.476288,548.987305 315.595093,559.461426 
	C325.237457,573.648560 334.568604,588.047058 344.051453,602.342834 
	C345.059265,603.862183 346.188599,605.300903 347.660156,607.280212 
	C348.377350,608.362061 348.656006,608.967163 349.020203,609.515503 
	C363.768036,631.721924 378.523560,653.923157 393.278137,676.125061 
	C409.093018,699.729675 424.907867,723.334290 440.950684,747.226929 
z"/>
<path fill="#47704C" opacity="1.000000" stroke="none" 
	d="
M393.487915,675.762695 
	C378.523560,653.923157 363.768036,631.721924 349.020203,609.515503 
	C348.656006,608.967163 348.377350,608.362061 347.948029,607.452026 
	C363.691711,596.228516 379.546143,585.336426 395.613251,574.298218 
	C395.613251,586.873474 395.685608,599.029419 395.585388,611.183899 
	C395.527863,618.160706 395.187225,625.135132 394.979675,632.110779 
	C394.550385,646.540527 394.124786,660.970459 393.487915,675.762695 
M393.992157,604.430542 
	C393.917023,603.790100 393.841919,603.149658 393.766815,602.509216 
	C393.607330,602.515930 393.447845,602.522644 393.288361,602.529358 
	C393.288361,611.205383 393.288361,619.881409 393.288361,628.557434 
	C393.524597,628.560974 393.760834,628.564575 393.997070,628.568115 
	C393.997070,620.788879 393.997070,613.009644 393.992157,604.430542 
M393.459045,588.385803 
	C393.665344,591.703369 393.871643,595.020874 394.077911,598.338440 
	C394.308899,598.312012 394.539886,598.285583 394.770874,598.259155 
	C394.770874,591.654297 394.770874,585.049500 394.770874,578.444702 
	C394.595062,578.438904 394.419220,578.433105 394.243408,578.427307 
	C394.059296,581.533325 393.875183,584.639282 393.459045,588.385803 
z"/>
<path fill="#23577D" opacity="1.000000" stroke="none" 
	d="
M851.779785,788.164978 
	C851.736694,775.005005 851.693542,761.844971 851.630981,748.278442 
	C851.716064,732.548218 851.861328,717.224670 851.913513,701.900879 
	C851.965759,686.572937 851.923218,671.244690 851.927734,655.916565 
	C851.928223,654.417542 851.870850,652.909729 852.006775,651.421204 
	C852.359314,647.561829 854.441833,645.159363 858.384216,645.093445 
	C862.318054,645.027649 864.538330,647.317078 864.955566,651.192139 
	C865.150940,653.006409 865.074646,654.852783 865.074829,656.684631 
	C865.079895,703.502014 865.071045,750.319397 865.101990,797.136780 
	C865.103577,799.448547 865.442444,801.760132 865.757141,804.452148 
	C861.484802,807.156250 857.079590,809.479980 852.304810,811.408020 
	C851.863708,803.998474 851.792236,796.984558 851.741333,789.519470 
	C851.767822,788.767212 851.773804,788.466125 851.779785,788.164978 
z"/>
<path fill="#4E7455" opacity="1.000000" stroke="none" 
	d="
M309.603088,633.006714 
	C312.074036,635.844971 314.320312,638.707275 316.330872,641.726624 
	C341.032288,678.821594 365.700500,715.938599 390.366852,753.056946 
	C390.917145,753.885071 391.344635,754.794800 391.949707,756.432861 
	C391.716553,761.822876 391.363098,766.446411 391.009644,771.069946 
	C390.961304,771.361267 390.818817,771.595276 390.394165,771.858154 
	C386.576660,766.300659 383.176392,760.492920 379.278900,755.040649 
	C360.188293,728.334717 340.952942,701.732300 321.794952,675.074463 
	C313.801208,663.951416 305.872406,652.781677 297.770233,641.295654 
	C301.507172,638.340027 305.388031,635.721863 309.603088,633.006714 
z"/>
<path fill="#0A66C4" opacity="1.000000" stroke="none" 
	d="
M851.092041,747.199951 
	C851.034058,747.284241 850.814575,747.284607 850.278320,747.195251 
	C850.284485,747.109070 850.607483,747.112549 851.092041,747.199951 
z"/>
<path fill="#0A66C4" opacity="1.000000" stroke="none" 
	d="
M442.906006,747.025757 
	C442.857239,747.139404 442.678528,747.181702 442.231628,747.161072 
	C442.221802,746.894714 442.492706,746.846802 442.906006,747.025757 
z"/>
<path fill="#F3BC2E" opacity="1.000000" stroke="none" 
	d="
M623.023926,1018.156982 
	C616.079346,1008.059509 609.055542,998.015503 602.206238,987.853821 
	C585.971191,963.767395 569.818970,939.625122 553.359375,915.339966 
	C551.688171,899.061584 550.290833,882.948486 549.406799,866.390686 
	C560.226746,866.392822 570.549622,866.609009 580.836853,867.332031 
	C606.414551,869.129761 631.969116,869.448364 657.586060,867.910400 
	C692.774353,865.797729 727.991760,864.170532 763.196716,862.334961 
	C783.447083,861.279175 803.697388,860.222961 823.947754,859.166992 
	C814.334656,875.904968 804.785217,892.679932 795.095581,909.373474 
	C772.114868,948.965332 749.067688,988.518555 725.954224,1028.418213 
	C699.985291,1023.769714 677.089661,1029.468018 657.245361,1047.542480 
	C651.876587,1040.913818 646.551697,1034.785034 642.186035,1028.035889 
	C637.528198,1020.834839 632.374756,1015.730347 623.023926,1018.156982 
z"/>
<path fill="#2871B2" opacity="1.000000" stroke="none" 
	d="
M824.231567,858.957520 
	C803.697388,860.222961 783.447083,861.279175 763.196716,862.334961 
	C727.991760,864.170532 692.774353,865.797729 657.586060,867.910400 
	C631.969116,869.448364 606.414551,869.129761 580.836853,867.332031 
	C570.549622,866.609009 560.226746,866.392822 549.452698,865.954834 
	C546.045044,856.070374 542.658264,846.420898 536.540710,837.885376 
	C529.740051,828.396912 520.823975,821.379395 511.354950,814.836060 
	C499.884857,806.910217 488.589691,798.731262 477.500610,790.353882 
	C480.281647,790.026611 482.780975,789.990479 485.280273,789.990356 
	C607.427124,789.981873 729.573975,789.976440 851.720825,789.970703 
	C851.792236,796.984558 851.863708,803.998474 851.959900,811.476685 
	C842.828247,827.543335 833.671814,843.145691 824.231567,858.957520 
z"/>
<path fill="#0A66C4" opacity="1.000000" stroke="none" 
	d="
M404.661591,1474.705322 
	C404.419617,1474.893677 404.033966,1474.936157 403.359528,1474.930420 
	C403.553131,1474.774536 404.035522,1474.666992 404.661591,1474.705322 
z"/>
<path fill="#0A66C4" opacity="1.000000" stroke="none" 
	d="
M218.843933,1474.805908 
	C218.934143,1474.884521 218.509735,1474.955933 218.310165,1474.877441 
	C218.323807,1474.625854 218.538193,1474.602051 218.843933,1474.805908 
z"/>
<path fill="#0A66C4" opacity="1.000000" stroke="none" 
	d="
M835.153931,1153.197998 
	C835.035156,1153.139282 835.498962,1152.978394 835.740112,1153.024170 
	C835.981262,1153.069824 835.643860,1153.271362 835.643860,1153.271362 
	C835.643860,1153.271362 835.272705,1153.256592 835.153931,1153.197998 
z"/>
<path fill="#0A66C4" opacity="1.000000" stroke="none" 
	d="
M851.741333,789.519470 
	C729.573975,789.976440 607.427124,789.981873 485.280273,789.990356 
	C482.780975,789.990479 480.281647,790.026611 477.294861,790.084717 
	C476.285828,789.854004 475.764313,789.584412 475.038727,789.093872 
	C476.991180,788.783813 479.147705,788.617249 481.304230,788.617065 
	C602.680847,788.604553 724.057434,788.606628 845.434021,788.599365 
	C847.261230,788.599243 849.088440,788.500061 851.347778,788.306030 
	C851.773804,788.466125 851.767822,788.767212 851.741333,789.519470 
z"/>
<path fill="#EFBB30" opacity="1.000000" stroke="none" 
	d="
M391.395874,771.037231 
	C391.363098,766.446411 391.716553,761.822876 392.087219,756.770630 
	C394.724518,760.072266 397.344574,763.802612 400.107178,767.877258 
	C397.427155,769.149170 394.604645,770.076843 391.395874,771.037231 
z"/>
<path fill="#F6A483" opacity="1.000000" stroke="none" 
	d="
M668.877258,333.950989 
	C666.837158,336.194580 665.204285,339.188934 662.687622,340.553741 
	C650.885742,346.954041 637.847351,347.969086 624.819031,347.352203 
	C615.755859,346.923065 606.708313,345.304504 597.759216,343.647919 
	C592.432007,342.661774 587.686768,340.061096 585.681030,334.288055 
	C613.648926,333.968323 641.263123,333.959656 668.877258,333.950989 
z"/>
<path fill="#EF8E7C" opacity="1.000000" stroke="none" 
	d="
M668.835205,333.613831 
	C641.263123,333.959656 613.648926,333.968323 585.578857,333.964050 
	C587.608093,331.745789 589.739929,328.434845 592.634155,327.510284 
	C615.418274,320.231720 638.391663,320.528442 661.204407,327.429962 
	C664.062073,328.294495 666.279236,331.276031 668.835205,333.613831 
z"/>
<path fill="#EF8E7C" opacity="1.000000" stroke="none" 
	d="
M650.481323,287.560791 
	C653.343933,291.262756 650.104309,292.654572 648.103394,293.873596 
	C639.614624,299.045227 630.154114,300.012268 620.629028,298.494049 
	C615.332520,297.649841 610.210510,295.407959 605.191040,293.353485 
	C604.020874,292.874573 603.587097,290.596649 602.814575,289.146423 
	C604.434143,289.247375 606.424866,288.772369 607.615051,289.539490 
	C618.045654,296.262329 629.265076,294.806854 640.374329,292.573792 
	C643.850220,291.875122 646.923279,289.172729 650.481323,287.560791 
z"/>
<path fill="#F3BC2E" opacity="1.000000" stroke="none" 
	d="
M969.004272,1625.149170 
	C962.014832,1614.807495 955.008301,1604.477051 948.040710,1594.120605 
	C940.783081,1583.332764 933.563049,1572.519653 926.206665,1561.408936 
	C941.005371,1552.268311 955.924072,1543.436279 971.033936,1534.307861 
	C985.608826,1554.741943 999.992737,1575.472290 1014.239380,1596.790039 
	C1012.878235,1598.201294 1011.683350,1599.072876 1010.425964,1599.842285 
	C996.624390,1608.287231 982.812927,1616.715942 969.004272,1625.149170 
z"/>
<path fill="#313131" opacity="1.000000" stroke="none" 
	d="
M969.084839,1625.475708 
	C982.812927,1616.715942 996.624390,1608.287231 1010.425964,1599.842285 
	C1011.683350,1599.072876 1012.878235,1598.201294 1014.391602,1597.120850 
	C1020.441589,1604.994385 1026.202026,1613.124146 1032.032959,1621.591064 
	C1016.931641,1631.223389 1001.759827,1640.518677 986.279907,1649.973999 
	C980.369751,1642.023438 974.767578,1633.912842 969.084839,1625.475708 
z"/>
<path fill="#4E7455" opacity="1.000000" stroke="none" 
	d="
M623.179626,1018.453491 
	C632.374756,1015.730347 637.528198,1020.834839 642.186035,1028.035889 
	C646.551697,1034.785034 651.876587,1040.913818 656.923828,1047.622925 
	C654.502075,1050.815552 651.935791,1053.700806 649.069702,1056.751953 
	C640.291687,1044.195312 631.813538,1031.472656 623.179626,1018.453491 
z"/>
<path fill="#23577D" opacity="1.000000" stroke="none" 
	d="
M785.544922,1259.115479 
	C785.032471,1258.118042 784.768372,1257.298706 784.504272,1256.479492 
	C784.874756,1256.350952 785.245300,1256.222534 785.615845,1256.094116 
	C785.961182,1257.104980 786.311462,1258.114136 786.634094,1259.132080 
	C786.647278,1259.173584 786.409424,1259.345581 786.272949,1259.369873 
	C786.122375,1259.396606 785.953979,1259.323364 785.544922,1259.115479 
z"/>
<path fill="#2871B2" opacity="1.000000" stroke="none" 
	d="
M783.408203,1250.386719 
	C783.524719,1250.296509 783.588623,1250.619629 783.588623,1250.619629 
	C783.588623,1250.619629 783.291687,1250.476929 783.408203,1250.386719 
z"/>
<path fill="#2871B2" opacity="1.000000" stroke="none" 
	d="
M784.408203,1252.386719 
	C784.524719,1252.296509 784.588623,1252.619629 784.588623,1252.619629 
	C784.588623,1252.619629 784.291687,1252.476929 784.408203,1252.386719 
z"/>
<path fill="#8B9B9B" opacity="1.000000" stroke="none" 
	d="
M238.359894,1831.745850 
	C238.710556,1837.309692 238.845016,1843.105103 238.965714,1848.900879 
	C239.044373,1852.677979 236.216415,1851.971191 234.018753,1851.975708 
	C215.874374,1852.013184 197.729874,1851.998779 179.585419,1851.998901 
	C169.930573,1851.998901 160.273987,1851.891479 150.621826,1852.052124 
	C147.249390,1852.108032 145.792755,1851.133057 145.940826,1847.543335 
	C146.172882,1841.917236 146.002380,1836.274536 147.005875,1830.619019 
	C147.005875,1835.912354 147.174622,1841.213013 146.946640,1846.496460 
	C146.794281,1850.027588 148.147339,1851.068604 151.575195,1851.055664 
	C178.874725,1850.952515 206.175018,1850.949463 233.474487,1851.058105 
	C236.962921,1851.071899 238.195038,1849.917480 238.057968,1846.449097 
	C237.867706,1841.633789 238.091370,1836.802124 238.359894,1831.745850 
z"/>
<path fill="#8B9B9B" opacity="1.000000" stroke="none" 
	d="
M393.994629,604.830444 
	C393.997070,613.009644 393.997070,620.788879 393.997070,628.568115 
	C393.760834,628.564575 393.524597,628.560974 393.288361,628.557434 
	C393.288361,619.881409 393.288361,611.205383 393.288361,602.529358 
	C393.447845,602.522644 393.607330,602.515930 393.766815,602.509216 
	C393.841919,603.149658 393.917023,603.790100 393.994629,604.830444 
z"/>
<path fill="#8B9B9B" opacity="1.000000" stroke="none" 
	d="
M393.575073,588.065552 
	C393.875183,584.639282 394.059296,581.533325 394.243408,578.427307 
	C394.419220,578.433105 394.595062,578.438904 394.770874,578.444702 
	C394.770874,585.049500 394.770874,591.654297 394.770874,598.259155 
	C394.539886,598.285583 394.308899,598.312012 394.077911,598.338440 
	C393.871643,595.020874 393.665344,591.703369 393.575073,588.065552 
z"/>
</svg>